# xmcd
#
# Track frame offsets: 
#        150
#        15300
#        26625
#        51525
#        70350
#        85200
#        103800
#        130500
#        142200
#        156525
#        167175
#        183825
#        206250
#
# Disc length: 2903 seconds
#
# Revision: 1
# Processed by: cddbd v1.5.2PL0 Copyright (c) Steve Scherf et al.
# Submitted via: ExactAudioCopyFreeDBPlugin 1.0
#
DISCID=b70b550d
DTITLE=The Roach Twins Band - Got A New Job
DYEAR=2005
DGENRE=Blues
TTITLE0=Madrugada
TTITLE1=One Eyed Cat
TTITLE2=Waiting For Victor
TTITLE3=Soul Of A Man
TTITLE4=Ready Freddy
TTITLE5=Naughty Night Nurse
TTITLE6=CSI Salford
TTITLE7=Give Us A Doner
TTITLE8=Down At Sam's
TTITLE9=Murder Here
TTITLE10=Gravy Train
TTITLE11=Got A New Job
TTITLE12=Little House On The Prarie... Not
EXTD=YEAR: 2005
EXTT0=
EXTT1=
EXTT2=
EXTT3=
EXTT4=
EXTT5=
EXTT6=
EXTT7=
EXTT8=
EXTT9=
EXTT10=
EXTT11=
EXTT12=
PLAYORDER=
